<svg width="17" height="16" viewBox="0 0 17 16" fill="none" xmlns="http://www.w3.org/2000/svg">
<path fill-rule="evenodd" clip-rule="evenodd" d="M7.37392 1.14737C7.18156 0.949249 6.86969 0.949249 6.67733 1.14737L5.97307 1.87273C5.78071 2.07085 5.78071 2.39207 5.97307 2.59019L11.2259 8.0004L5.97361 13.41C5.78125 13.6082 5.78125 13.9294 5.97361 14.1275L6.67787 14.8529C6.87023 15.051 7.18211 15.051 7.37447 14.8529L12.935 9.12576C12.9496 9.11377 12.9638 9.10079 12.9773 9.08683L13.6816 8.36148C13.7651 8.27552 13.8123 8.16639 13.8233 8.05419C13.8394 7.90617 13.7924 7.75226 13.6821 7.63876L12.9779 6.9134C12.9628 6.89785 12.947 6.88352 12.9305 6.87041L7.37392 1.14737Z" fill="#444B52"/>
</svg>
