<svg width="25" height="24" viewBox="0 0 25 24" fill="none" xmlns="http://www.w3.org/2000/svg">
<path d="M22.8024 9.61116V9.74324C22.8024 12.7447 22.8024 15.7461 22.8024 18.7475C22.8024 19.2212 22.6474 19.5946 22.2801 19.8406C22.1005 19.9636 21.9005 20 21.6883 20C20.4109 20 19.1336 20 17.8603 20C13.2241 20 8.58804 20 3.95193 20C3.48668 20 3.13163 19.8042 2.93166 19.3259C2.86636 19.1665 2.83371 18.9752 2.83371 18.7931C2.82963 15.7689 2.82963 12.7447 2.82963 9.72047C2.82963 9.68858 2.83371 9.65215 2.83371 9.6066C3.06225 9.72047 3.28671 9.82977 3.50709 9.93908C6.20468 11.2736 8.90228 12.6126 11.5999 13.9471C12.412 14.3478 13.2241 14.3478 14.0322 13.9471C16.9094 12.5215 19.7824 11.1005 22.6596 9.67492C22.7045 9.6567 22.7453 9.63848 22.8024 9.61116Z" fill="#E5BD89"/>
<path d="M12.8161 4C15.7749 4 18.7337 4 21.6924 4C22.2067 4 22.6025 4.28693 22.7576 4.79249C22.7984 4.92457 22.8188 5.06576 22.8188 5.20695C22.8311 5.64873 22.827 6.09508 22.827 6.53686C22.8229 7.0743 22.6025 7.45687 22.1658 7.67549C19.6029 8.95075 17.0359 10.226 14.4689 11.4967C14.0771 11.688 13.6854 11.8793 13.2977 12.0797C12.9793 12.2437 12.6651 12.2346 12.3468 12.0751C11.0408 11.4239 9.73079 10.7817 8.42076 10.1349C6.77608 9.31967 5.13141 8.50897 3.48673 7.69371C3.07046 7.4842 2.846 7.11984 2.83376 6.60518C2.8256 6.12696 2.8256 5.64873 2.83376 5.17506C2.846 4.46911 3.29084 4 3.93973 4C6.54754 4 9.15535 4 11.7591 4H12.8161Z" fill="#E5BD89"/>
</svg>
