<svg width="25" height="24" viewBox="0 0 25 24" fill="none" xmlns="http://www.w3.org/2000/svg">
<path fill-rule="evenodd" clip-rule="evenodd" d="M6.33839 3.26957C8.06511 2.11581 10.0952 1.5 12.1719 1.5C14.9557 1.50306 17.6247 2.61029 19.5931 4.57875C21.5616 6.54722 22.6688 9.21616 22.6719 12C22.6719 14.0767 22.0561 16.1068 20.9023 17.8335C19.7486 19.5602 18.1087 20.906 16.1901 21.7007C14.2714 22.4955 12.1602 22.7034 10.1234 22.2982C8.08663 21.8931 6.21571 20.8931 4.74726 19.4246C3.27881 17.9562 2.27878 16.0852 1.87363 14.0484C1.46849 12.0116 1.67642 9.90045 2.47114 7.98182C3.26586 6.0632 4.61168 4.42332 6.33839 3.26957ZM14.8968 14.6284C14.9854 14.628 15.0737 14.6163 15.1596 14.5936C15.2935 14.5582 15.419 14.4967 15.529 14.4125C15.639 14.3284 15.7313 14.2234 15.8006 14.1035C15.8698 13.9836 15.9146 13.8511 15.9325 13.7138C15.9503 13.5765 15.9408 13.437 15.9045 13.3034C15.8683 13.1697 15.8059 13.0446 15.7211 12.9351C15.6362 12.8257 15.5306 12.7341 15.4102 12.6657L13.2073 11.3941V6.74998C13.2073 6.4715 13.0967 6.20443 12.8998 6.00752C12.7049 5.81262 12.4412 5.70225 12.1658 5.70002L12.1573 5.69998C11.8788 5.69998 11.6118 5.81061 11.4148 6.00752C11.2179 6.20443 11.1073 6.4715 11.1073 6.74998V12C11.1073 12.1843 11.1558 12.3653 11.248 12.525C11.3401 12.6846 11.4727 12.8171 11.6323 12.9093L14.3602 14.4843C14.4797 14.5543 14.6118 14.6 14.749 14.6188C14.7981 14.6255 14.8475 14.6287 14.8968 14.6284Z" fill="#0A2C36"/>
</svg>
