<svg width="25" height="24" viewBox="0 0 25 24" fill="none" xmlns="http://www.w3.org/2000/svg">
<path d="M22.1467 9.61116V9.74324C22.1467 12.7447 22.1467 15.7461 22.1467 18.7475C22.1467 19.2212 21.9916 19.5946 21.6243 19.8406C21.4447 19.9636 21.2448 20 21.0326 20C19.7552 20 18.4778 20 17.2045 20C12.5684 20 7.93228 20 3.29617 20C2.83092 20 2.47587 19.8042 2.27589 19.3259C2.2106 19.1665 2.17795 18.9752 2.17795 18.7931C2.17387 15.7689 2.17387 12.7447 2.17387 9.72047C2.17387 9.68858 2.17795 9.65215 2.17795 9.6066C2.40649 9.72047 2.63095 9.82977 2.85133 9.93908C5.54892 11.2736 8.24652 12.6126 10.9441 13.9471C11.7563 14.3478 12.5684 14.3478 13.3764 13.9471C16.2536 12.5215 19.1267 11.1005 22.0038 9.67492C22.0487 9.6567 22.0896 9.63848 22.1467 9.61116Z" fill="#0A2C36"/>
<path d="M12.1603 4C15.1191 4 18.0779 4 21.0367 4C21.5509 4 21.9468 4.28693 22.1018 4.79249C22.1427 4.92457 22.1631 5.06576 22.1631 5.20695C22.1753 5.64873 22.1712 6.09508 22.1712 6.53686C22.1671 7.0743 21.9468 7.45687 21.5101 7.67549C18.9472 8.95075 16.3802 10.226 13.8132 11.4967C13.4214 11.688 13.0296 11.8793 12.6419 12.0797C12.3236 12.2437 12.0093 12.2346 11.691 12.0751C10.3851 11.4239 9.07503 10.7817 7.765 10.1349C6.12032 9.31967 4.47565 8.50897 2.83097 7.69371C2.4147 7.4842 2.19024 7.11984 2.178 6.60518C2.16983 6.12696 2.16983 5.64873 2.178 5.17506C2.19024 4.46911 2.63508 4 3.28397 4C5.89178 4 8.49959 4 11.1033 4H12.1603Z" fill="#0A2C36"/>
</svg>
