<svg width="25" height="24" viewBox="0 0 25 24" fill="none" xmlns="http://www.w3.org/2000/svg">
<path d="M22.6719 18.0915C22.6719 18.3584 22.6185 18.7057 22.5118 19.1333C22.405 19.561 22.2983 19.8994 22.1916 20.1485C21.9959 20.6473 21.3905 21.1817 20.3753 21.7518C19.4491 22.2506 18.5321 22.5 17.6243 22.5C17.3575 22.5 17.0903 22.4822 16.8229 22.4466C16.5555 22.411 16.2706 22.3487 15.9682 22.2598C15.6658 22.1708 15.4342 22.0996 15.2736 22.0462C15.1129 21.9928 14.8369 21.895 14.4455 21.7526C14.0541 21.6102 13.8048 21.5213 13.6975 21.4857C12.7357 21.1292 11.8721 20.7107 11.1066 20.2302C9.84239 19.4467 8.52455 18.3779 7.15307 17.0237C5.78159 15.6696 4.71309 14.3514 3.94758 13.069C3.4667 12.3032 3.05725 11.4393 2.71925 10.4772C2.68367 10.3883 2.59472 10.1388 2.4524 9.729C2.31008 9.31915 2.20334 9.04304 2.13219 8.90067C2.06103 8.75831 1.98987 8.52669 1.91871 8.20582C1.84755 7.88494 1.78528 7.59994 1.73192 7.3508C1.67855 7.10167 1.66076 6.84336 1.67855 6.57587C1.67855 5.64939 1.93678 4.7232 2.45324 3.79728C3.00527 2.78183 3.53063 2.17623 4.0293 1.98048C4.27836 1.8737 4.61664 1.76693 5.04415 1.66016C5.47166 1.55339 5.81884 1.5 6.08569 1.5C6.228 1.5 6.33474 1.5178 6.4059 1.55339C6.5838 1.60677 6.85092 1.98075 7.20728 2.67533C7.31401 2.87108 7.45661 3.14719 7.63506 3.50365C7.81352 3.86012 7.99169 4.17182 8.16959 4.43875C8.34749 4.70568 8.49898 4.97289 8.62406 5.24038C8.65964 5.27597 8.74859 5.40054 8.89091 5.61408C9.03323 5.82763 9.13997 6.00586 9.21113 6.14878C9.28229 6.2917 9.31787 6.43406 9.31787 6.57587C9.31787 6.77162 9.17555 7.01214 8.89091 7.29742C8.60627 7.5827 8.29468 7.85881 7.95611 8.12574C7.61755 8.39267 7.31485 8.65988 7.048 8.92737C6.78116 9.19486 6.63856 9.41758 6.62021 9.59553C6.62021 9.68451 6.6469 9.80018 6.70027 9.94254C6.75364 10.0849 6.78922 10.1828 6.80701 10.2362C6.8248 10.2896 6.89595 10.4141 7.02048 10.6099C7.14501 10.8056 7.20728 10.8946 7.20728 10.8768C7.955 12.2482 8.81864 13.4238 9.79819 14.4036C10.7777 15.3835 11.9441 16.2474 13.2972 16.9954C13.315 16.9954 13.404 17.0488 13.5641 17.1555C13.7242 17.2623 13.8487 17.3335 13.9376 17.3691C14.0266 17.4047 14.1244 17.4492 14.2312 17.5025C14.3379 17.5559 14.4536 17.5737 14.5781 17.5559C14.756 17.5559 14.9786 17.4136 15.246 17.1288C15.5134 16.8441 15.7806 16.5413 16.0474 16.2204C16.3143 15.8996 16.5903 15.5879 16.8755 15.2853C17.1607 14.9828 17.41 14.8405 17.6235 14.8583C17.748 14.8583 17.8814 14.8938 18.0237 14.965C18.1661 15.0362 18.3442 15.143 18.5583 15.2853C18.7723 15.4277 18.8968 15.5167 18.9319 15.5523C19.1809 15.6946 19.448 15.8462 19.7332 16.0069C20.0184 16.1676 20.3389 16.3458 20.6947 16.5416C21.0505 16.7373 21.3176 16.8889 21.4961 16.9962C22.1904 17.3349 22.5643 17.5932 22.6177 17.7711C22.6533 17.8423 22.671 17.9491 22.671 18.0915H22.6719Z" fill="#0A2C36"/>
</svg>
