<svg width="25" height="24" viewBox="0 0 25 24" fill="none" xmlns="http://www.w3.org/2000/svg">
<path d="M12.1565 24C11.4829 22.8928 10.82 21.8036 10.1607 20.7143C8.50177 17.984 6.8428 15.2537 5.18384 12.5198C4.37048 11.1761 3.95484 9.72499 3.96201 8.15202C3.97634 4.82334 6.03661 1.80638 9.12881 0.580964C13.4213 -1.11742 18.2728 1.03602 19.8494 5.37155C20.738 7.82238 20.5123 10.2087 19.1758 12.4446C16.8826 16.2749 14.5464 20.0801 12.2318 23.8961C12.2103 23.9283 12.1888 23.9534 12.1565 24ZM15.8829 8.20218C15.8829 6.14549 14.2204 4.48294 12.1601 4.48294C10.107 4.47936 8.43728 6.14549 8.43369 8.1986C8.43011 10.2625 10.1034 11.9393 12.1565 11.9393C14.2204 11.9358 15.8829 10.2696 15.8829 8.20218Z" fill="#0A2C36"/>
<path d="M12.1602 10.4416C10.924 10.4416 9.93148 9.44913 9.9279 8.20939C9.92431 6.97322 10.9204 5.96996 12.153 5.96638C13.3856 5.96279 14.4032 6.97681 14.3996 8.20939C14.3924 9.44913 13.3963 10.4416 12.1602 10.4416Z" fill="#0A2C36"/>
</svg>
