<svg width="25" height="24" viewBox="0 0 25 24" fill="none" xmlns="http://www.w3.org/2000/svg">
<path d="M23.3276 18.0915C23.3276 18.3584 23.2743 18.7057 23.1675 19.1333C23.0608 19.561 22.9541 19.8994 22.8473 20.1485C22.6516 20.6473 22.0462 21.1817 21.0311 21.7518C20.1049 22.2506 19.1879 22.5 18.2801 22.5C18.0132 22.5 17.7461 22.4822 17.4787 22.4466C17.2113 22.411 16.9264 22.3487 16.6239 22.2598C16.3215 22.1708 16.09 22.0996 15.9293 22.0462C15.7686 21.9928 15.4926 21.895 15.1013 21.7526C14.7099 21.6102 14.4605 21.5213 14.3532 21.4857C13.3915 21.1292 12.5279 20.7107 11.7623 20.2302C10.4981 19.4467 9.18032 18.3779 7.80883 17.0237C6.43735 15.6696 5.36885 14.3514 4.60334 13.069C4.12246 12.3032 3.71302 11.4393 3.37501 10.4772C3.33943 10.3883 3.25048 10.1388 3.10816 9.729C2.96584 9.31915 2.85911 9.04304 2.78795 8.90067C2.71679 8.75831 2.64563 8.52669 2.57447 8.20582C2.50331 7.88494 2.44105 7.59994 2.38768 7.3508C2.33431 7.10167 2.31652 6.84336 2.33431 6.57587C2.33431 5.64939 2.59254 4.7232 3.109 3.79728C3.66104 2.78183 4.18639 2.17623 4.68506 1.98048C4.93412 1.8737 5.2724 1.76693 5.69991 1.66016C6.12742 1.55339 6.4746 1.5 6.74145 1.5C6.88377 1.5 6.9905 1.5178 7.06166 1.55339C7.23956 1.60677 7.50669 1.98075 7.86304 2.67533C7.96978 2.87108 8.11237 3.14719 8.29083 3.50365C8.46928 3.86012 8.64746 4.17182 8.82535 4.43875C9.00325 4.70568 9.15474 4.97289 9.27983 5.24038C9.31541 5.27597 9.40435 5.40054 9.54667 5.61408C9.68899 5.82763 9.79573 6.00586 9.86689 6.14878C9.93805 6.2917 9.97363 6.43406 9.97363 6.57587C9.97363 6.77162 9.83131 7.01214 9.54667 7.29742C9.26204 7.5827 8.95044 7.85881 8.61188 8.12574C8.27331 8.39267 7.97061 8.65988 7.70376 8.92737C7.43692 9.19486 7.29432 9.41758 7.27597 9.59553C7.27597 9.68451 7.30266 9.80018 7.35603 9.94254C7.4094 10.0849 7.44498 10.1828 7.46277 10.2362C7.48056 10.2896 7.55172 10.4141 7.67624 10.6099C7.80077 10.8056 7.86304 10.8946 7.86304 10.8768C8.61076 12.2482 9.4744 13.4238 10.454 14.4036C11.4335 15.3835 12.5998 16.2474 13.953 16.9954C13.9708 16.9954 14.0597 17.0488 14.2198 17.1555C14.3799 17.2623 14.5045 17.3335 14.5934 17.3691C14.6824 17.4047 14.7802 17.4492 14.8869 17.5025C14.9937 17.5559 15.1093 17.5737 15.2338 17.5559C15.4117 17.5559 15.6344 17.4136 15.9018 17.1288C16.1692 16.8441 16.4363 16.5413 16.7032 16.2204C16.97 15.8996 17.246 15.5879 17.5312 15.2853C17.8164 14.9828 18.0658 14.8405 18.2792 14.8583C18.4038 14.8583 18.5372 14.8938 18.6795 14.965C18.8218 15.0362 19 15.143 19.214 15.2853C19.4281 15.4277 19.5526 15.5167 19.5876 15.5523C19.8367 15.6946 20.1038 15.8462 20.389 16.0069C20.6742 16.1676 20.9947 16.3458 21.3505 16.5416C21.7063 16.7373 21.9734 16.8889 22.1518 16.9962C22.8462 17.3349 23.2201 17.5932 23.2734 17.7711C23.309 17.8423 23.3268 17.9491 23.3268 18.0915H23.3276Z" fill="#E5BD89"/>
</svg>
