<svg width="22" height="22" viewBox="0 0 22 22" fill="none" xmlns="http://www.w3.org/2000/svg">
<path d="M12.8967 17.4479C10.9703 16.7696 9.22056 15.6678 7.77639 14.2236C6.33222 12.7794 5.2304 11.0297 4.55208 9.10326C5.63863 9.11844 6.69476 8.7444 7.52955 8.04874C8.30758 7.40037 8.8455 6.51252 9.06159 5.52733C9.09131 5.39181 9.04544 5.25197 8.94733 5.15386L3.94985 0.156374C3.85174 0.0582701 3.7119 0.0123944 3.57638 0.0421185C2.59119 0.258204 1.70334 0.796125 1.05497 1.57416C0.359312 2.40895 -0.0147362 3.46508 0.000444567 4.55163C0.000444567 9.17911 1.8387 13.6171 5.11082 16.8892C8.38294 20.1613 12.8209 21.9996 17.4484 21.9996C18.5349 22.0147 19.591 21.6407 20.4258 20.945C21.2039 20.2967 21.7418 19.4088 21.9579 18.4236C21.9876 18.2881 21.9417 18.1483 21.8436 18.0502L16.8461 13.0527C16.748 12.9546 16.6082 12.9087 16.4727 12.9384C15.4875 13.1545 14.5996 13.6924 13.9513 14.4705C13.2556 15.3052 12.8816 16.3614 12.8967 17.4479Z" fill="white"/>
</svg>
