<svg width="21" height="20" viewBox="0 0 21 20" fill="none" xmlns="http://www.w3.org/2000/svg">
<path d="M13.4748 8.65411C13.4748 7.36082 13.0165 6.25589 12.1 5.33934C11.1834 4.42278 10.072 3.95823 8.76579 3.94569C7.45956 3.93314 6.34817 4.39769 5.43161 5.33934C4.51506 6.28098 4.05678 7.38591 4.05678 8.65411C4.05678 9.92231 4.51506 11.0337 5.43161 11.9883C6.34817 12.9429 7.45956 13.4011 8.76579 13.3631C10.072 13.3251 11.1834 12.8668 12.1 11.9883C13.0165 11.1098 13.4748 9.99836 13.4748 8.65411ZM18.8618 17.4129C18.8618 17.7771 18.7236 18.0911 18.4472 18.355C18.1709 18.6188 17.8569 18.7507 17.5052 18.7507C17.1285 18.7507 16.8145 18.6188 16.5632 18.355L12.9656 14.7574C11.7099 15.6237 10.3098 16.0569 8.7652 16.0569C7.76044 16.0569 6.79978 15.8623 5.88322 15.473C4.96667 15.0837 4.18183 14.5562 3.52872 13.8906C2.8756 13.2249 2.34813 12.4401 1.94631 11.5361C1.54448 10.6321 1.34984 9.67142 1.36239 8.65411C1.37493 7.6368 1.56957 6.68242 1.94631 5.79095C2.32304 4.89948 2.85051 4.10838 3.52872 3.41763C4.20692 2.72688 4.99176 2.19941 5.88322 1.83522C6.77469 1.47102 7.73535 1.27638 8.7652 1.25129C9.79505 1.2262 10.7557 1.42085 11.6472 1.83522C12.5386 2.24959 13.3235 2.77706 14.0017 3.41763C14.6799 4.0582 15.2074 4.8493 15.5841 5.79095C15.9608 6.7326 16.1555 7.68698 16.168 8.65411C16.168 10.1987 15.7348 11.5988 14.8684 12.8545L18.4661 16.4521C18.7299 16.7159 18.8618 17.0362 18.8618 17.4129Z" fill="white"/>
</svg>
