<svg width="25" height="24" viewBox="0 0 25 24" fill="none" xmlns="http://www.w3.org/2000/svg">
<path fill-rule="evenodd" clip-rule="evenodd" d="M6.99415 3.26957C8.72087 2.11581 10.7509 1.5 12.8276 1.5C15.6115 1.50306 18.2804 2.61029 20.2489 4.57875C22.2174 6.54722 23.3246 9.21616 23.3276 12C23.3276 14.0767 22.7118 16.1068 21.5581 17.8335C20.4043 19.5602 18.7644 20.906 16.8458 21.7007C14.9272 22.4955 12.816 22.7034 10.7792 22.2982C8.74239 21.8931 6.87147 20.8931 5.40302 19.4246C3.93457 17.9562 2.93454 16.0852 2.5294 14.0484C2.12425 12.0116 2.33219 9.90045 3.12691 7.98182C3.92163 6.0632 5.26744 4.42332 6.99415 3.26957ZM15.5526 14.6284C15.6411 14.628 15.7294 14.6163 15.8154 14.5936C15.9492 14.5582 16.0748 14.4967 16.1848 14.4125C16.2948 14.3284 16.3871 14.2234 16.4563 14.1035C16.5256 13.9836 16.5704 13.8511 16.5882 13.7138C16.6061 13.5765 16.5966 13.437 16.5603 13.3034C16.524 13.1697 16.4617 13.0446 16.3768 12.9351C16.292 12.8257 16.1863 12.7341 16.066 12.6657L13.8631 11.3941V6.74998C13.8631 6.4715 13.7524 6.20443 13.5555 6.00752C13.3606 5.81262 13.097 5.70225 12.8216 5.70002L12.8131 5.69998C12.5346 5.69998 12.2675 5.81061 12.0706 6.00752C11.8737 6.20443 11.7631 6.4715 11.7631 6.74998V12C11.7631 12.1843 11.8116 12.3653 11.9037 12.525C11.9959 12.6846 12.1284 12.8171 12.2881 12.9093L15.016 14.4843C15.1354 14.5543 15.2676 14.6 15.4048 14.6188C15.4539 14.6255 15.5033 14.6287 15.5526 14.6284Z" fill="#E5BD89"/>
</svg>
