<svg width="25" height="24" viewBox="0 0 25 24" fill="none" xmlns="http://www.w3.org/2000/svg">
<path d="M12.8126 24C12.139 22.8928 11.4762 21.8036 10.8169 20.7143C9.1579 17.984 7.49893 15.2537 5.83996 12.5198C5.0266 11.1761 4.61097 9.72499 4.61813 8.15202C4.63247 4.82334 6.69274 1.80638 9.78494 0.580964C14.0775 -1.11742 18.929 1.03602 20.5055 5.37155C21.3941 7.82238 21.1684 10.2087 19.8319 12.4446C17.5387 16.2749 15.2026 20.0801 12.8879 23.8961C12.8664 23.9283 12.8449 23.9534 12.8126 24ZM16.5391 8.20218C16.5391 6.14549 14.8765 4.48294 12.8162 4.48294C10.7631 4.47936 9.0934 6.14549 9.08982 8.1986C9.08624 10.2625 10.7595 11.9393 12.8126 11.9393C14.8765 11.9358 16.5391 10.2696 16.5391 8.20218Z" fill="#E5BD89"/>
<path d="M12.8163 10.4416C11.5801 10.4416 10.5876 9.44913 10.584 8.20939C10.5804 6.97322 11.5765 5.96996 12.8091 5.96638C14.0417 5.96279 15.0593 6.97681 15.0557 8.20939C15.0485 9.44913 14.0525 10.4416 12.8163 10.4416Z" fill="#E5BD89"/>
</svg>
